<svg id="Layer_1" xmlns="http://www.w3.org/2000/svg" viewBox="0 0 100.7 73.9"><style>.st0{fill:#fff}</style><path class="st0" d="M93.2 22.1C88.4 17 66 8.8 65 8.5c-.6-.2-1.2-.3-1.8-.3-2.6 0-5.1 1.8-6 4.4-.1.4-.4 1.4-.4 2.5-.6-.2-1.3-.3-1.9-.3-2.9 0-5.6 1.9-6.6 4.6-.6 1.5-.6 3.2 0 4.7-2.9 0-5.6 1.9-6.5 4.6-.6 1.7-.7 3.6-.2 5.2l-17-6.2c-1.1-.4-2.2-.6-3.2-.6-2.9 0-5.1 1.5-6 4.2-.7 1.9-.5 3.8.4 5.5.9 1.5 2.4 2.7 4.3 3.4l39.7 14.4-7.8 3.3c-2 .9-3.5 2.6-4.2 4.6-.7 2-.6 4.3.3 6.2 1.3 2.9 4.3 4.8 7.4 4.8 1.2 0 2.4-.3 3.4-.7.1 0 7.3-2.9 16.9-7.4l1.6-.7c9.1-4.2 16.9-7.8 21.1-19.3 4.2-11.9-.3-18-5.3-23.3zm2.4 22.2C91.8 54.6 84.9 57.9 76 61.9l-1.6.7C65 67.1 57.8 70 57.7 70c-.7.3-1.4.5-2.2.5-2 0-3.9-1.2-4.7-3-.6-1.3-.7-2.7-.2-4 .5-1.3 1.4-2.3 2.6-2.9l11.1-4.8c.6-.2.9-.8.9-1.4 0-.6-.4-1.2-1-1.4L21 37.4c-1.2-.4-2.2-1.2-2.7-2.1-.5-.9-.6-1.9-.2-3 .5-1.5 1.6-2.2 3.2-2.2.7 0 1.4.1 2.2.4l26.3 9.6c.8.3 1.6-.1 1.9-.9.3-.8-.1-1.6-.9-1.9L47 35.9c-1.3-.5-2.2-1.3-2.6-2.6-.4-1.1-.4-2.5.1-3.6.6-1.6 2.1-2.6 3.8-2.6.5 0 .9.1 1.4.2l5.2 1.9c.8.3 1.6-.1 1.9-.9.3-.8-.1-1.6-.9-1.9l-2.4-.9c-1-.4-1.8-1.1-2.3-2.1-.5-1-.5-2.1-.1-3.1.6-1.6 2.1-2.6 3.8-2.6.5 0 .9.1 1.4.2l6.1 2.2c.8.3 1.6-.1 1.9-.9s-.1-1.6-.9-1.9L59.8 16c-.1-.7 0-1.9.2-2.6.6-1.6 2.6-2.8 4-2.2 6.3 2.3 23.5 9.1 27.1 12.9 4.6 5 8.2 10 4.5 20.2zM13.4 55.8c-1.1.3-2.3.5-3.4.8C5.9 39 6.5 20.7 11.8 3.4c.3-1-.3-2.4-1.3-2.7-1-.3-2.2.4-2.6 1.5-5.4 18-6.1 37.1-1.9 55.3-1.5.3-2.9.7-4.4 1-.6.1-1.1.4-1.2 1.1-.1.7.2 1.1.7 1.5 2.5 1.8 5.1 3.4 7.6 4.9.8.4 1.7.1 2-.6 1.2-2.7 2.6-5.3 4-7.8.3-.5.3-1 0-1.5-.2-.4-.7-.4-1.3-.3z"/></svg>