<svg id="Layer_1" xmlns="http://www.w3.org/2000/svg" viewBox="0 0 63.5 54.3"><style>.st0{fill:#fff}</style><path class="st0" d="M55.6 16.5c-1.3-2.8-4.5-4.1-7.1-2.9-.6.3-1 .6-1.4 1.1-1.2-2.5-4.3-3.5-6.8-2.3-.8.4-1.4.9-1.9 1.6-.4-.3-.8-.5-1.3-.7-1.3-.5-2.7-.4-4 .2-.6.3-1 .6-1.4 1l-3.3-7.3c-1.2-2.6-4.3-3.7-6.9-2.5-1.5.5-2.5 1.5-3 2.8-.5 1.3-.5 2.7.1 4l8.2 17.8-.2-.2c-2.5-1.8-5.9-1.2-7.8 1.3-1.1 1.5-1.9 4.1.9 7.4.1.1 10.9 13 21.3 16.2.2.1.3.1.5.1.8 0 1.4-.5 1.7-1.2.3-.9-.2-1.9-1.2-2.2-7.8-2.4-16.8-11.7-19.6-15.1-1.6-1.9-1.1-2.6-.7-3.1.7-.9 2-1.1 2.9-.5l5.2 3.7 1.8 3.8c.3.6.9 1 1.6 1 .2 0 .5-.1.7-.2.9-.4 1.3-1.5.9-2.3L21.9 10c-.2-.4-.2-.8 0-1.3.2-.4.5-.8.9-1 .9-.4 1.9 0 2.3.8l5.4 11.7 2.9 6.4c.4.9 1.5 1.3 2.3.9s1.3-1.5.9-2.3l-2.9-6.4c-.4-.8 0-1.8.9-2.2.4-.2.9-.2 1.3-.1.4.2.8.5.9.8l.9 1.9 2.1 4.5.4.9c.3.6.9 1 1.6 1 .2 0 .5-.1.7-.2.9-.4 1.3-1.5.9-2.3l-.4-.9-2.1-4.5c-.4-.8 0-1.8.9-2.2.9-.4 1.9 0 2.3.8l2.2 4.7 1 2.1c.4.9 1.5 1.3 2.3.9.9-.4 1.3-1.5.9-2.3l-1-2.1c-.3-.6-.3-1.2-.2-1.7.1-.3.3-.8.8-1 .9-.4 2 .2 2.5 1.3 0 0 0 .1.1.1.1.1 7.3 13.3 7.3 24.9 0 1 .8 1.8 1.8 1.8s1.8-.8 1.8-1.8c-.3-12.4-7.4-25.6-8-26.7zM10.5 35.5c-.8-.5-1.9-.3-2.4.5l-.6.9C5.1 25.5 5.3 13.3 7.9 3c.2-.9-.3-1.9-1.3-2.1-.9-.3-1.9.3-2.1 1.2C1.7 13 1.6 25.9 4.1 37.9l-1.2-.8c-.8-.5-1.9-.3-2.4.5S.2 39.5 1 40l4.6 3c.3.2.6.3 1 .3H7c.5-.1.9-.4 1.1-.8l3-4.6c.5-.8.2-1.9-.6-2.4z"/></svg>